<svg width="18" height="18" viewBox="0 0 18 18" fill="none" xmlns="http://www.w3.org/2000/svg">
<path d="M12.9485 9.49106C12.55 9.88963 10.6094 11.8303 10.1769 12.2629C9.90225 12.5375 9.457 12.5374 9.18246 12.2629C8.90786 11.9882 8.90786 11.543 9.18246 11.2685L10.7478 9.70312H5.53124C5.1429 9.70312 4.82811 9.38834 4.82811 9C4.82811 8.61166 5.1429 8.29688 5.53124 8.29688H10.7478L9.1825 6.73158C8.90789 6.45697 8.90789 6.01175 9.1825 5.73718C9.4571 5.46261 9.90232 5.46258 10.1769 5.73718C10.5591 6.11947 12.574 8.13435 12.9479 8.50834C13.2165 8.78333 13.214 9.21927 12.9485 9.49106ZM18 5.2162V12.7838C18 15.1878 16.3698 16.4086 16.2641 16.5584C15.3345 17.4881 14.0985 18 12.7838 18H5.2162C3.9015 18 2.66548 17.488 1.73591 16.5584C1.63143 16.4103 0 15.188 0 12.7838V5.2162C0 2.81222 1.63023 1.59138 1.73595 1.44158C2.66548 0.511981 3.9015 0 5.2162 0H12.7838C14.0985 0 15.3345 0.51198 16.2641 1.44162C16.3686 1.5897 18 2.81197 18 5.2162ZM16.5938 5.2162C16.5938 3.45456 15.3766 2.58465 15.2697 2.43598C15.2697 2.43594 15.2697 2.43594 15.2697 2.43594C14.6057 1.77191 13.7229 1.40625 12.7838 1.40625H5.2162C4.27714 1.40625 3.3943 1.77191 2.7303 2.43594C2.61953 2.59 1.40625 3.44521 1.40625 5.2162V12.7838C1.40625 14.5454 2.62339 15.4153 2.7303 15.564C3.3943 16.2281 4.27714 16.5938 5.2162 16.5938H12.7838C13.7229 16.5938 14.6057 16.2281 15.2697 15.5641C15.3805 15.41 16.5938 14.5548 16.5938 12.7838V5.2162Z" fill="#E81C2E"/>
</svg>
