<svg width="25" height="25" viewBox="0 0 25 25" fill="none" xmlns="http://www.w3.org/2000/svg">
<path d="M24.8557 5.22295C24.7126 5.01785 24.4823 4.89108 24.2322 4.88039L8.72447 4.21194C8.27952 4.19247 7.9077 4.53598 7.88868 4.97886C7.86977 5.42156 8.21272 5.79562 8.65554 5.81465L23.1134 6.43789L20.2707 15.3074H7.62024L5.33476 2.86306C5.28452 2.59032 5.09727 2.36278 4.83902 2.26146L1.09578 0.790901C0.683232 0.629383 0.217699 0.832022 0.0556768 1.24407C-0.106065 1.65634 0.096518 2.12216 0.508846 2.28418L3.83718 3.59171L6.163 16.2544C6.2331 16.6351 6.56486 16.9116 6.95207 16.9116H7.33788L6.45689 19.3587C6.38315 19.5637 6.41353 19.7913 6.53902 19.9694C6.66434 20.1475 6.86815 20.2535 7.08573 20.2535H7.70366C7.32076 20.6797 7.08573 21.2407 7.08573 21.8578C7.08573 23.1847 8.16545 24.2642 9.49211 24.2642C10.8188 24.2642 11.8985 23.1847 11.8985 21.8578C11.8985 21.2408 11.6635 20.6797 11.2806 20.2535H16.5271C16.1441 20.6797 15.9091 21.2407 15.9091 21.8578C15.9091 23.1847 16.9885 24.2642 18.3155 24.2642C19.6425 24.2642 20.7219 23.1847 20.7219 21.8578C20.7219 21.2408 20.4869 20.6797 20.1041 20.2535H20.8556C21.2248 20.2535 21.524 19.9543 21.524 19.5851C21.524 19.2159 21.2248 18.9167 20.8556 18.9167H8.03683L8.75865 16.9114H20.8555C21.2044 16.9114 21.513 16.686 21.6193 16.3541L24.9615 5.92637C25.0382 5.68837 24.9988 5.42816 24.8557 5.22295ZM9.49217 22.9275C8.90232 22.9275 8.42263 22.4479 8.42263 21.8581C8.42263 21.2682 8.90232 20.7885 9.49217 20.7885C10.082 20.7885 10.5616 21.2682 10.5616 21.8581C10.5616 22.4479 10.082 22.9275 9.49217 22.9275ZM18.3155 22.9275C17.7256 22.9275 17.246 22.4479 17.246 21.8581C17.246 21.2682 17.7256 20.7885 18.3155 20.7885C18.9053 20.7885 19.385 21.2682 19.385 21.8581C19.385 22.4479 18.9053 22.9275 18.3155 22.9275Z" fill="white"/>
</svg>
