<svg width="50" height="36" viewBox="0 0 50 36" fill="none" xmlns="http://www.w3.org/2000/svg">
<path d="M11.0887 0.352905C4.97457 0.352905 0.000976562 5.3265 0.000976562 11.4407C0.000976562 17.339 4.62973 22.1767 10.4456 22.511C10.5463 23.5981 10.4707 26.5576 7.63488 30.6744C7.42051 30.9849 7.45941 31.4038 7.72567 31.67C8.88613 32.8305 9.60332 33.5613 10.1053 34.0725C10.7622 34.7409 11.0621 35.046 11.5007 35.4443C11.6495 35.5793 11.8371 35.6472 12.0257 35.6472C12.2087 35.6472 12.3911 35.5831 12.5383 35.4557C17.4799 31.1558 22.9693 22.2713 22.175 11.3842C21.7096 4.99236 17.0473 0.352905 11.0887 0.352905ZM12.0332 33.7986C11.8204 33.5888 11.5778 33.3417 11.22 32.9777C10.7851 32.5345 10.1885 31.9271 9.28363 31.0192C12.7253 25.716 12.0752 21.9388 11.7907 21.397C11.6556 21.1399 11.3786 20.9667 11.0887 20.9667C5.83668 20.9667 1.56348 16.6935 1.56348 11.4407C1.56348 6.18861 5.83668 1.91541 11.0887 1.91541C16.205 1.91541 20.212 5.94525 20.6171 11.4971C21.5097 23.7424 14.2321 31.6929 12.0332 33.7986Z" fill="#E81C2E"/>
<path d="M49.9222 11.3842V11.3835C49.4552 4.99236 44.7922 0.352905 38.8352 0.352905C32.721 0.352905 27.7466 5.3265 27.7466 11.4407C27.7466 17.339 32.3761 22.1767 38.1927 22.511C38.2935 23.5974 38.2171 26.5552 35.3806 30.6744C35.1662 30.9849 35.2051 31.4038 35.4713 31.67C36.6272 32.8259 37.3428 33.5552 37.8449 34.0656C38.5048 34.7385 38.8062 35.0452 39.2471 35.445C39.3959 35.5793 39.5843 35.6472 39.772 35.6472C39.9552 35.6472 40.1375 35.5831 40.2847 35.4549C45.2263 31.155 50.7156 22.2706 49.9222 11.3842ZM39.7796 33.7986C39.5653 33.5873 39.3204 33.3386 38.9595 32.9709C38.5246 32.5283 37.9303 31.9226 37.0292 31.0192C40.4709 25.7152 39.8217 21.9388 39.5378 21.397C39.4028 21.1407 39.1251 20.9667 38.8352 20.9667C33.5823 20.9667 29.3091 16.6935 29.3091 11.4407C29.3091 6.18861 33.5823 1.91541 38.8352 1.91541C43.9506 1.91541 47.9584 5.94525 48.3642 11.4979V11.4971C49.2561 23.7408 41.9785 31.6929 39.7796 33.7986Z" fill="#E81C2E"/>
</svg>
