<svg width="35" height="35" viewBox="0 0 35 35" fill="none" xmlns="http://www.w3.org/2000/svg">
<path d="M8.17911 7.09666L22.1319 3.28813L21.393 1.79459C20.9096 0.823783 19.7305 0.422885 18.7597 0.906321L6.26895 7.09666H8.17911Z" fill="white"/>
<path d="M26.4632 3.39819C26.2903 3.39819 26.1174 3.42178 25.9444 3.46894L22.6665 4.36507L12.6558 7.09668H24.0185H28.9708L28.3577 4.8485C28.1219 3.97203 27.3279 3.39819 26.4632 3.39819Z" fill="white"/>
<path d="M31.0185 8.47241H30.5705H29.9613H29.352H24.7024H7.61707H5.37675H3.49017H3.14037H1.96912C1.34812 8.47241 0.793936 8.75933 0.432341 9.21132C0.267266 9.41963 0.141494 9.65939 0.0707468 9.92272C0.0275126 10.0878 0 10.2607 0 10.4376V10.6734V12.9137V32.3337C0 33.4185 0.880404 34.2989 1.96519 34.2989H31.0146C32.0994 34.2989 32.9798 33.4185 32.9798 32.3337V26.8508H21.3184C19.475 26.8508 17.9775 25.3534 17.9775 23.51V21.7099V21.1007V20.4915V19.1395C17.9775 18.2355 18.3391 17.4141 18.9248 16.8127C19.4436 16.2781 20.1392 15.9165 20.9175 15.8261C21.0472 15.8105 21.1808 15.8026 21.3144 15.8026H31.3447H31.954H32.5632H32.9798V10.4376C32.9837 9.35282 32.1033 8.47241 31.0185 8.47241Z" fill="white"/>
<path d="M34.3594 17.6811C34.1628 17.5003 33.9309 17.3627 33.6715 17.2723C33.4711 17.2056 33.2589 17.1663 33.0348 17.1663H32.9837H32.9444H32.3352H30.1381H21.3184C20.2335 17.1663 19.3532 18.0466 19.3532 19.1314V20.1101V20.7193V21.3285V23.5059C19.3532 24.5907 20.2335 25.4711 21.3184 25.4711H32.9837H33.0348C33.2589 25.4711 33.4711 25.4318 33.6715 25.365C33.9309 25.2785 34.1628 25.137 34.3594 24.9562C34.7524 24.5986 35 24.0798 35 23.506V19.1314C35 18.5576 34.7524 18.0387 34.3594 17.6811ZM25.4217 21.7097C25.4217 22.2521 24.9815 22.6923 24.4391 22.6923H23.7866C23.2443 22.6923 22.8041 22.2521 22.8041 21.7097V21.0573C22.8041 20.7429 22.9495 20.4638 23.1814 20.2869C23.3504 20.1572 23.5587 20.0747 23.7866 20.0747H23.9517H24.4391C24.9815 20.0747 25.4217 20.5149 25.4217 21.0573V21.7097Z" fill="white"/>
</svg>
