<svg width="70" height="70" viewBox="0 0 70 70" fill="none" xmlns="http://www.w3.org/2000/svg">
<g clip-path="url(#clip0_313_3817)">
<path d="M67.0622 20.6225L59.9158 16.3468L58.3057 9.68176C57.5908 6.72576 54.853 4.7551 51.8509 4.99135L43.6737 5.62422L38.9895 1.47672C36.6824 -0.491897 33.3258 -0.491897 31.0107 1.47467L26.3263 5.62408L18.1492 4.99121C15.1812 4.78299 12.4074 6.72754 11.7685 9.43922C11.6363 9.85019 9.24824 17.2733 9.40328 16.7911L2.93894 20.6203C0.34949 22.2105 -0.687932 25.4028 0.47158 28.2107L3.26133 34.9719L0.473631 41.7311C-0.687932 44.5409 0.351404 47.7313 2.93894 49.3194L10.0781 53.5652L11.6943 60.2603C12.4052 63.2143 15.131 65.1749 18.149 64.9507L26.238 64.3259L31.0104 68.5221C32.1661 69.5073 33.5821 70 35 70C36.4159 70 37.8339 69.5073 38.9895 68.5219L43.7619 64.3258L51.8509 64.9506C54.9071 65.1928 57.5947 63.2162 58.3057 60.2602L59.9158 53.5951L67.0622 49.3194C69.6477 47.7313 70.6851 44.5409 69.5275 41.7311L66.7378 34.972L69.5296 28.2088C70.6872 25.403 69.6498 22.2107 67.0622 20.6225ZM35 57.5586C22.5612 57.5586 12.4414 47.4388 12.4414 35C12.4414 22.5612 22.5612 12.4414 35 12.4414C47.4388 12.4414 57.5586 22.5612 57.5586 35C57.5586 47.4388 47.4388 57.5586 35 57.5586Z" fill="#E81C2E"/>
<path d="M35 16.543C24.8222 16.543 16.543 24.8222 16.543 35C16.543 45.1778 24.8222 53.457 35 53.457C45.1778 53.457 53.457 45.1778 53.457 35C53.457 24.8222 45.1778 16.543 35 16.543ZM46.7038 30.2976L34.3991 42.6022C33.9985 43.0028 33.4738 43.2031 32.9492 43.2031C32.4246 43.2031 31.8998 43.0028 31.4993 42.6022L23.2962 34.3991C22.4952 33.5981 22.4952 32.3002 23.2962 31.4992C24.0972 30.6981 25.3951 30.6981 26.1961 31.4992L32.9492 38.2524L43.804 27.3976C44.605 26.5966 45.9029 26.5966 46.7039 27.3976C47.505 28.1987 47.505 29.4965 46.7038 30.2976Z" fill="#E81C2E"/>
</g>
<defs>
<clipPath id="clip0_313_3817">
<rect width="70" height="70" fill="white"/>
</clipPath>
</defs>
</svg>
