<svg width="70" height="70" viewBox="0 0 70 70" fill="none" xmlns="http://www.w3.org/2000/svg">
<path d="M16.3584 14.1933L44.2641 6.57626L42.7863 3.58917C41.8194 1.64757 39.4612 0.84577 37.5196 1.81264L12.5381 14.1933H16.3584Z" fill="#E81C2E"/>
<path d="M52.9263 6.79639C52.5806 6.79639 52.2346 6.84355 51.8887 6.93788L45.3329 8.73013L25.3115 14.1934H48.037H57.9415L56.7152 9.697C56.2436 7.94406 54.6557 6.79639 52.9263 6.79639Z" fill="#E81C2E"/>
<path d="M62.0371 16.9446H61.1409H59.9225H58.7041H49.4048H15.2341H10.7535H6.98035H6.28074H3.93824C2.69624 16.9446 1.58787 17.5184 0.864683 18.4224C0.534531 18.839 0.282987 19.3185 0.141494 19.8452C0.0550253 20.1753 0 20.5212 0 20.875V21.3466V25.8272V64.6672C0 66.8368 1.76081 68.5976 3.93038 68.5976H62.0292C64.1988 68.5976 65.9596 66.8368 65.9596 64.6672V53.7015H42.6367C38.95 53.7015 35.9551 50.7065 35.9551 47.0198V43.4196V42.2012V40.9828V38.2787C35.9551 36.4707 36.6782 34.8279 37.8495 33.6252C38.8871 32.556 40.2785 31.8328 41.8349 31.652C42.0943 31.6207 42.3616 31.6049 42.6289 31.6049H62.6895H63.9079H65.1263H65.9596V20.875C65.9674 18.7054 64.2066 16.9446 62.0371 16.9446Z" fill="#E81C2E"/>
<path d="M68.7189 35.3624C68.3259 35.0008 67.8621 34.7257 67.3433 34.5449C66.9423 34.4114 66.5179 34.3328 66.0698 34.3328H65.9676H65.889H64.6706H60.2764H42.6369C40.4673 34.3328 38.7065 36.0935 38.7065 38.2631V40.2204V41.4388V42.6572V47.0121C38.7065 49.1816 40.4673 50.9425 42.6369 50.9425H65.9676H66.0698C66.5179 50.9425 66.9424 50.8638 67.3433 50.7302C67.8621 50.5573 68.3259 50.2743 68.7189 49.9127C69.505 49.1974 70.0002 48.1597 70.0002 47.0122V38.2631C70.0002 37.1154 69.505 36.0777 68.7189 35.3624ZM50.8435 43.4197C50.8435 44.5045 49.9631 45.3849 48.8784 45.3849H47.5735C46.4887 45.3849 45.6083 44.5045 45.6083 43.4197V42.1148C45.6083 41.486 45.8991 40.9278 46.3629 40.574C46.7009 40.3146 47.1176 40.1496 47.5735 40.1496H47.9036H48.8784C49.9631 40.1496 50.8435 41.03 50.8435 42.1148V43.4197Z" fill="#E81C2E"/>
</svg>
