<svg width="35" height="35" viewBox="0 0 35 35" fill="none" xmlns="http://www.w3.org/2000/svg">
<g clip-path="url(#clip0_71_565)">
<path d="M22.758 0.808477L22.0288 2.26681C21.6685 2.98727 21.9605 3.86343 22.6811 4.2236C23.4015 4.58393 24.2777 4.29188 24.6379 3.57133L25.367 2.113C25.7274 1.39254 25.4353 0.516386 24.7148 0.156215C23.7263 -0.296445 22.9964 0.331649 22.758 0.808477Z" fill="white"/>
<path d="M11.0913 0.808477L10.3621 2.26681C10.0018 2.98727 10.2939 3.86343 11.0144 4.2236C11.7349 4.58393 12.611 4.29188 12.9712 3.57133L13.7004 2.113C14.0607 1.39254 13.7686 0.516386 13.0481 0.156215C12.0597 -0.296445 11.3297 0.331649 11.0913 0.808477Z" fill="white"/>
<path d="M16.9247 0.808477L16.1955 2.26681C15.8352 2.98727 16.1272 3.86343 16.8478 4.2236C17.5682 4.58393 18.4444 4.29188 18.8045 3.57133L19.5337 2.113C19.894 1.39254 19.602 0.516386 18.8814 0.156215C17.893 -0.296445 17.1631 0.331649 16.9247 0.808477Z" fill="white"/>
<path d="M7.21302 8.63226L4.95036 13.9141C4.77581 14.3205 4.37583 14.5838 3.93351 14.5834H1.45833C0.652951 14.5835 8.05326e-05 15.2364 3.41786e-09 16.0417V17.5001C-3.77091e-05 18.0525 0.312015 18.5575 0.806071 18.8046L2.2644 19.5338C2.66381 19.7333 2.91629 20.1412 2.91667 20.5876V32.0834C2.91667 33.674 4.24273 35.0001 5.83333 35.0001C7.42394 35.0001 8.75 33.674 8.75 32.0834V31.3542C8.75 30.9515 9.07646 30.6251 9.47917 30.6251H25.5208C25.9235 30.6251 26.25 30.9515 26.25 31.3542V32.0834C26.25 33.674 27.5761 35.0001 29.1667 35.0001C30.7573 35.0001 32.0833 33.674 32.0833 32.0834V20.5876C32.0837 20.1412 32.3362 19.7333 32.7356 19.5338L34.1939 18.8046C34.688 18.5575 35 18.0525 35 17.5001V16.0417C34.9999 15.2364 34.347 14.5835 33.5417 14.5834H31.0665C30.6242 14.5838 30.2242 14.3205 30.0496 13.9141L27.787 8.63226C27.6166 8.23442 27.3331 7.89534 26.9718 7.65705C26.6105 7.41876 26.1872 7.29175 25.7544 7.29175H9.24561C8.8128 7.29175 8.3895 7.41876 8.02819 7.65705C7.66688 7.89534 7.38345 8.23442 7.21302 8.63226ZM10.4333 10.2084H24.5581C25.0004 10.2081 25.4004 10.4714 25.575 10.8778L28.1242 16.8307C28.2592 17.1476 28.0271 17.4995 27.6827 17.5001H7.3173C6.97289 17.4995 6.74078 17.1476 6.87581 16.8307L9.42505 10.8778C9.59838 10.4742 9.99414 10.2115 10.4333 10.2084ZM6.5625 21.8751H10.9375C11.3415 21.8751 11.6667 22.2003 11.6667 22.6042V24.0626C11.6667 24.4665 11.3415 24.7917 10.9375 24.7917H6.5625C6.15854 24.7917 5.83333 24.4665 5.83333 24.0626V22.6042C5.83333 22.2003 6.15854 21.8751 6.5625 21.8751ZM24.0625 21.8751H28.4375C28.8415 21.8751 29.1667 22.2003 29.1667 22.6042V24.0626C29.1667 24.4665 28.8415 24.7917 28.4375 24.7917H24.0625C23.6585 24.7917 23.3333 24.4665 23.3333 24.0626V22.6042C23.3333 22.2003 23.6585 21.8751 24.0625 21.8751Z" fill="white"/>
</g>
<defs>
<clipPath id="clip0_71_565">
<rect width="35" height="35" fill="white"/>
</clipPath>
</defs>
</svg>
