<svg width="70" height="70" viewBox="0 0 70 70" fill="none" xmlns="http://www.w3.org/2000/svg">
<g clip-path="url(#clip0_313_3864)">
<path d="M45.5161 1.61695L44.0577 4.53362C43.3371 5.97455 43.9212 7.72685 45.3623 8.44719C46.8032 9.16786 48.5555 8.58375 49.2758 7.14267L50.7342 4.226C51.4548 2.78508 50.8707 1.03277 49.4296 0.312429C47.4527 -0.592889 45.9929 0.663297 45.5161 1.61695Z" fill="#E81C2E"/>
<path d="M22.1826 1.61695L20.7242 4.53362C20.0036 5.97455 20.5877 7.72685 22.0288 8.44719C23.4697 9.16786 25.222 8.58375 25.9423 7.14267L27.4007 4.226C28.1213 2.78508 27.5372 1.03277 26.0961 0.312429C24.1193 -0.592889 22.6594 0.663297 22.1826 1.61695Z" fill="#E81C2E"/>
<path d="M33.8491 1.61695L32.3907 4.53362C31.6701 5.97455 32.2542 7.72685 33.6953 8.44719C35.1362 9.16786 36.8885 8.58375 37.6088 7.14267L39.0672 4.226C39.7878 2.78508 39.2037 1.03277 37.7626 0.312429C35.7858 -0.592889 34.3259 0.663297 33.8491 1.61695Z" fill="#E81C2E"/>
<path d="M14.426 17.2643L9.90072 27.8279C9.55161 28.6407 8.75167 29.1673 7.86702 29.1666H2.91667C1.3059 29.1667 0.000161065 30.4725 6.83572e-09 32.0833V34.9999C-7.54182e-05 36.1047 0.624031 37.1148 1.61214 37.609L4.52881 39.0673C5.32761 39.4663 5.83259 40.2822 5.83333 41.175V64.1666C5.83333 67.3478 8.48545 69.9999 11.6667 69.9999C14.8479 69.9999 17.5 67.3478 17.5 64.1666V62.7082C17.5 61.9028 18.1529 61.2499 18.9583 61.2499H51.0417C51.8471 61.2499 52.5 61.9028 52.5 62.7082V64.1666C52.5 67.3478 55.1521 69.9999 58.3333 69.9999C61.5146 69.9999 64.1667 67.3478 64.1667 64.1666V41.175C64.1674 40.2822 64.6724 39.4663 65.4712 39.0673L68.3879 37.609C69.376 37.1148 70.0001 36.1047 70 34.9999V32.0833C69.9998 30.4725 68.6941 29.1667 67.0833 29.1666H62.133C61.2483 29.1673 60.4484 28.6407 60.0993 27.8279L55.574 17.2643C55.2331 16.4686 54.6662 15.7904 53.9436 15.3139C53.221 14.8373 52.3744 14.5833 51.5088 14.5833H18.4912C17.6256 14.5833 16.779 14.8373 16.0564 15.3139C15.3338 15.7904 14.7669 16.4686 14.426 17.2643ZM20.8667 20.4166H49.1162C50.0008 20.4159 50.8008 20.9425 51.1499 21.7553L56.2484 33.6612C56.5184 34.2949 56.0542 34.9987 55.3654 34.9999H14.6346C13.9458 34.9987 13.4816 34.2949 13.7516 33.6612L18.8501 21.7553C19.1968 20.9481 19.9883 20.4227 20.8667 20.4166ZM13.125 43.7499H21.875C22.6829 43.7499 23.3333 44.4003 23.3333 45.2083V48.1249C23.3333 48.9328 22.6829 49.5833 21.875 49.5833H13.125C12.3171 49.5833 11.6667 48.9328 11.6667 48.1249V45.2083C11.6667 44.4003 12.3171 43.7499 13.125 43.7499ZM48.125 43.7499H56.875C57.6829 43.7499 58.3333 44.4003 58.3333 45.2083V48.1249C58.3333 48.9328 57.6829 49.5833 56.875 49.5833H48.125C47.3171 49.5833 46.6667 48.9328 46.6667 48.1249V45.2083C46.6667 44.4003 47.3171 43.7499 48.125 43.7499Z" fill="#E81C2E"/>
</g>
<defs>
<clipPath id="clip0_313_3864">
<rect width="70" height="70" fill="white"/>
</clipPath>
</defs>
</svg>
