<svg width="35" height="35" viewBox="0 0 35 35" fill="none" xmlns="http://www.w3.org/2000/svg">
<g clip-path="url(#clip0_71_570)">
<path d="M33.5311 10.3113L29.9579 8.1734L29.1528 4.84088C28.7954 3.36288 27.4265 2.37755 25.9254 2.49567L21.8368 2.81211L19.4947 0.738358C18.3412 -0.245948 16.6629 -0.245948 15.5053 0.737333L13.1631 2.81204L9.07456 2.4956C7.59055 2.39149 6.20368 3.36377 5.88423 4.71961C5.81813 4.9251 4.62409 8.63667 4.70161 8.39557L1.46945 10.3102C0.17472 11.1053 -0.343991 12.7014 0.235765 14.1054L1.63064 17.4859L0.236791 20.8655C-0.343991 22.2705 0.175677 23.8656 1.46945 24.6597L5.03904 26.7826L5.84711 30.1302C6.20258 31.6071 7.56546 32.5875 9.0745 32.4754L13.119 32.163L15.5052 34.261C16.083 34.7536 16.791 35 17.5 35C18.2079 35 18.9169 34.7536 19.4947 34.261L21.8809 32.1629L25.9254 32.4753C27.4535 32.5964 28.7973 31.6081 29.1528 30.1301L29.9579 26.7976L33.5311 24.6597C34.8238 23.8656 35.3425 22.2705 34.7637 20.8655L33.3689 17.486L34.7648 14.1044C35.3436 12.7015 34.8249 11.1053 33.5311 10.3113ZM17.5 28.7793C11.2806 28.7793 6.2207 23.7194 6.2207 17.5C6.2207 11.2806 11.2806 6.22071 17.5 6.22071C23.7194 6.22071 28.7793 11.2806 28.7793 17.5C28.7793 23.7194 23.7194 28.7793 17.5 28.7793Z" fill="white"/>
<path d="M17.5 8.27148C12.4111 8.27148 8.27148 12.4111 8.27148 17.5C8.27148 22.5889 12.4111 26.7285 17.5 26.7285C22.5889 26.7285 26.7285 22.5889 26.7285 17.5C26.7285 12.4111 22.5889 8.27148 17.5 8.27148ZM23.3519 15.1488L17.1996 21.3011C16.9993 21.5014 16.7369 21.6016 16.4746 21.6016C16.2123 21.6016 15.9499 21.5014 15.7497 21.3011L11.6481 17.1996C11.2476 16.799 11.2476 16.1501 11.6481 15.7496C12.0486 15.3491 12.6975 15.3491 13.0981 15.7496L16.4746 19.1262L21.902 13.6988C22.3025 13.2983 22.9515 13.2983 23.352 13.6988C23.7525 14.0993 23.7525 14.7483 23.3519 15.1488Z" fill="white"/>
</g>
<defs>
<clipPath id="clip0_71_570">
<rect width="35" height="35" fill="white"/>
</clipPath>
</defs>
</svg>
