<svg width="93" height="80" viewBox="0 0 93 80" fill="none" xmlns="http://www.w3.org/2000/svg">
<path d="M89.5 44.75H4C2.48122 44.75 1.25 45.9812 1.25 47.5V76.5C1.25 78.0188 2.48122 79.25 4 79.25H89.5C91.0188 79.25 92.25 78.0188 92.25 76.5V47.5C92.25 45.9812 91.0188 44.75 89.5 44.75Z" stroke="#E81C2E" stroke-width="1.5"/>
<path d="M16.74 62.02C16.74 60.66 17.0533 59.44 17.68 58.36C18.32 57.28 19.18 56.44 20.26 55.84C21.3533 55.2267 22.5467 54.92 23.84 54.92C25.32 54.92 26.6333 55.2867 27.78 56.02C28.94 56.74 29.78 57.7667 30.3 59.1H27.56C27.2 58.3667 26.7 57.82 26.06 57.46C25.42 57.1 24.68 56.92 23.84 56.92C22.92 56.92 22.1 57.1267 21.38 57.54C20.66 57.9533 20.0933 58.5467 19.68 59.32C19.28 60.0933 19.08 60.9933 19.08 62.02C19.08 63.0467 19.28 63.9467 19.68 64.72C20.0933 65.4933 20.66 66.0933 21.38 66.52C22.1 66.9333 22.92 67.14 23.84 67.14C24.68 67.14 25.42 66.96 26.06 66.6C26.7 66.24 27.2 65.6933 27.56 64.96H30.3C29.78 66.2933 28.94 67.32 27.78 68.04C26.6333 68.76 25.32 69.12 23.84 69.12C22.5333 69.12 21.34 68.82 20.26 68.22C19.18 67.6067 18.32 66.76 17.68 65.68C17.0533 64.6 16.74 63.38 16.74 62.02ZM41.7488 69.18C40.7088 69.18 39.7688 68.9467 38.9288 68.48C38.0888 68 37.4288 67.3333 36.9488 66.48C36.4688 65.6133 36.2288 64.6133 36.2288 63.48C36.2288 62.36 36.4754 61.3667 36.9688 60.5C37.4621 59.6333 38.1354 58.9667 38.9888 58.5C39.8421 58.0333 40.7954 57.8 41.8488 57.8C42.9021 57.8 43.8554 58.0333 44.7088 58.5C45.5621 58.9667 46.2354 59.6333 46.7288 60.5C47.2221 61.3667 47.4688 62.36 47.4688 63.48C47.4688 64.6 47.2154 65.5933 46.7088 66.46C46.2021 67.3267 45.5088 68 44.6288 68.48C43.7621 68.9467 42.8021 69.18 41.7488 69.18ZM41.7488 67.2C42.3354 67.2 42.8821 67.06 43.3888 66.78C43.9088 66.5 44.3288 66.08 44.6488 65.52C44.9688 64.96 45.1288 64.28 45.1288 63.48C45.1288 62.68 44.9754 62.0067 44.6688 61.46C44.3621 60.9 43.9554 60.48 43.4488 60.2C42.9421 59.92 42.3954 59.78 41.8088 59.78C41.2221 59.78 40.6754 59.92 40.1688 60.2C39.6754 60.48 39.2821 60.9 38.9888 61.46C38.6954 62.0067 38.5488 62.68 38.5488 63.48C38.5488 64.6667 38.8488 65.5867 39.4488 66.24C40.0621 66.88 40.8288 67.2 41.7488 67.2ZM55.7427 67.14H60.7427V69H53.1027V67.14L58.1227 59.84H53.1027V57.98H60.7427V59.84L55.7427 67.14ZM77.1167 57.98V69H74.8367V67.7C74.4767 68.1533 74.0034 68.5133 73.4167 68.78C72.8434 69.0333 72.2301 69.16 71.5767 69.16C70.7101 69.16 69.9301 68.98 69.2367 68.62C68.5567 68.26 68.0167 67.7267 67.6167 67.02C67.2301 66.3133 67.0367 65.46 67.0367 64.46V57.98H69.2967V64.12C69.2967 65.1067 69.5434 65.8667 70.0367 66.4C70.5301 66.92 71.2034 67.18 72.0567 67.18C72.9101 67.18 73.5834 66.92 74.0767 66.4C74.5834 65.8667 74.8367 65.1067 74.8367 64.12V57.98H77.1167Z" fill="white"/>
<path d="M82.4275 24.4242C82.2477 23.5249 77.3926 23.7949 76.3138 24.4242C75.2348 25.0534 74.6447 26.672 74.6447 26.672L69.1499 21.8169L73.1667 27.661C66.8732 29.5492 46.1937 30.386 46.1937 30.386C46.1937 30.386 25.5143 29.5492 19.2208 27.661L23.2376 21.8169L17.7428 26.672C17.7428 26.672 17.1527 25.0537 16.0737 24.4242C14.9946 23.7949 10.1395 23.5249 9.95965 24.4242C9.77981 25.3234 9.25069 27.3028 14.5452 27.0314C14.5452 27.0314 10.7691 27.4809 9.95965 28.1105C9.95965 28.1105 18.5011 27.3013 35.8539 38.5401C35.8539 38.5401 33.1566 34.4043 24.0756 30.2683C24.0756 30.2683 37.4722 31.9766 46.1935 31.8865C54.9147 31.9763 68.3113 30.2683 68.3113 30.2683C59.2303 34.404 56.533 38.5401 56.533 38.5401C73.8858 27.3013 82.4272 28.1105 82.4272 28.1105C81.6181 27.4812 77.8417 27.0314 77.8417 27.0314C83.1365 27.3028 82.6074 25.3234 82.4275 24.4242Z" fill="#E81C2E"/>
<path d="M25.4245 20.1094C28.7865 19.2491 32.2249 18.7346 35.6716 18.3752C36.534 18.2902 37.3966 18.1948 38.2616 18.1392L40.857 17.9653C42.5894 17.8942 44.3233 17.8383 46.0581 17.8315C47.7926 17.8098 49.5275 17.8838 51.2605 17.9456L53.8573 18.1198C54.2898 18.1528 54.7229 18.1689 55.1543 18.2162L56.4482 18.3574C59.9006 18.6867 63.3268 19.2964 66.6933 20.1091C63.226 19.9628 59.7989 19.7081 56.3599 19.6174C54.6436 19.5461 52.9257 19.5187 51.2102 19.4774L48.6354 19.4563C48.2064 19.4525 47.7775 19.4391 47.3485 19.4403L46.0611 19.4489C42.6284 19.4308 39.195 19.5187 35.7584 19.6299C32.3209 19.7506 28.8837 19.912 25.4245 20.1094Z" fill="#E81C2E"/>
<path d="M19.7014 38.0738C19.1265 37.2222 18.2219 36.724 17.4009 36.4336C16.4366 36.0926 15.5989 35.4642 15.0638 34.5926C14.8763 34.2871 14.6117 33.9616 14.2383 33.6471C12.9043 32.5237 11.7039 33.1997 11.7039 33.1997C11.7039 33.1997 11.764 39.1568 20.4891 41.2628C20.4891 41.2628 20.979 39.9665 19.7014 38.0738Z" fill="#E81C2E"/>
<path d="M25.4245 20.1084C25.4245 20.1084 24.2533 20.3391 23.2376 21.8167C22.2218 23.2944 19.2207 27.6608 19.2207 27.6608C19.2207 27.6608 27.2509 30.5294 37.6377 30.1783C37.6377 30.1783 33.9115 28.8829 35.5316 26.0503C37.009 23.4665 39.5996 24.6163 40.6228 22.2035C41.6459 19.7903 40.5779 18.9116 40.5779 18.9116C40.5779 18.9116 29.788 19.0974 25.4245 20.1084Z" fill="#E81C2E"/>
<path d="M43.9982 19.4502L41.833 19.4749C43.8252 24.2295 40.3654 25.3166 38.5818 27.31C36.7983 29.3034 40.3214 30.9565 40.3214 30.9565C40.3214 30.9565 38.5292 28.6215 40.8897 27.415C42.5621 26.56 43.8395 25.2316 44.4048 23.4849C44.7835 22.3149 44.6852 21.0411 44.1976 19.9121L43.9982 19.4502Z" fill="#E81C2E"/>
<path d="M72.1192 38.0738C72.6941 37.2222 73.5986 36.724 74.4196 36.4336C75.384 36.0926 76.2216 35.4642 76.7567 34.5926C76.9443 34.2871 77.2088 33.9616 77.5822 33.6471C78.9163 32.5237 80.1166 33.1997 80.1166 33.1997C80.1166 33.1997 80.0566 39.1568 71.3314 41.2628C71.3314 41.2628 70.8415 39.9665 72.1192 38.0738Z" fill="#E81C2E"/>
<path d="M39.2462 43.7415C38.9082 42.9885 38.651 42.2103 38.5553 41.342C38.5476 41.117 38.5333 40.8952 38.6079 40.6274C38.6166 40.5656 38.6603 40.488 38.6897 40.4193C38.7013 40.3637 38.8023 40.2436 38.9147 40.1663C38.9861 40.1244 39.0476 40.0947 39.1171 40.0611L39.2869 39.9972C39.7268 39.8456 40.1299 39.7873 40.5428 39.7127C42.1831 39.4473 43.815 39.3774 45.4514 39.3528C47.0884 39.348 48.7219 39.422 50.3669 39.678C50.7798 39.7517 51.1885 39.8156 51.6196 39.9612C51.7298 40.002 51.8357 40.0367 51.9614 40.1039C51.9926 40.1203 52.0185 40.1313 52.053 40.1524C52.0919 40.1791 52.1303 40.2074 52.1668 40.2371C52.2518 40.2995 52.2753 40.3524 52.3187 40.4089C52.4873 40.6301 52.5556 40.8821 52.5952 41.1152C52.6469 41.587 52.5758 42.0159 52.4599 42.4211C52.3389 42.8247 52.1811 43.2091 51.9757 43.5667C52.0488 43.1627 52.099 42.7599 52.1154 42.3643C52.127 41.9713 52.1074 41.5762 51.9923 41.2519C51.9314 41.0962 51.8636 40.9517 51.7602 40.8676C51.7379 40.8474 51.709 40.8093 51.7019 40.8236C51.6968 40.8245 51.6933 40.8239 51.6906 40.8218L51.6433 40.8093C51.5848 40.7894 51.4938 40.7745 51.4091 40.7591C51.0539 40.7029 50.6544 40.6711 50.2623 40.6547C48.6785 40.5876 47.0632 40.6128 45.4574 40.6108C44.6533 40.6021 43.8489 40.6164 43.0463 40.6283C42.2434 40.6283 41.4405 40.6589 40.648 40.6854C40.2562 40.7017 39.8496 40.7332 39.5048 40.7888L39.3829 40.8108C39.3597 40.8185 39.327 40.8266 39.3077 40.8289C39.3885 40.7412 39.3029 40.817 39.2875 40.8643C39.2233 40.9805 39.1983 41.1711 39.1701 41.3491C39.0907 42.1051 39.1763 42.9285 39.2462 43.7415Z" fill="#E81C2E"/>
<path d="M8.40128 30.208C8.21727 31.5382 8.07815 32.7695 7.99879 33.9954C7.91704 35.2156 7.88345 36.4133 7.94796 37.6071C8.01365 38.7976 8.09896 39.9941 8.31031 41.1983C8.37363 41.8124 8.52702 42.4075 8.61976 43.0392C8.72202 43.6682 8.89116 44.2823 8.96072 44.9699C8.71786 44.7383 8.49699 44.4886 8.27821 44.233C8.06299 43.9759 7.83411 43.7199 7.66675 43.4328C7.31658 42.8653 6.95838 42.2842 6.72414 41.6516C6.18105 40.4102 5.92005 39.0509 5.85228 37.6933C5.78213 36.3321 5.97624 34.9624 6.38616 33.6752C6.80321 32.3955 7.43132 31.1616 8.40128 30.208Z" fill="#E81C2E"/>
<path d="M83.791 30.208C84.7609 31.1616 85.3887 32.3955 85.8061 33.6752C86.216 34.9624 86.4098 36.3321 86.3399 37.6933C86.2722 39.0509 86.0112 40.4099 85.4681 41.6516C85.2338 42.2842 84.8757 42.8653 84.5255 43.4328C84.3578 43.7202 84.1292 43.9761 83.914 44.233C83.6952 44.4883 83.4744 44.7383 83.2315 44.9699C83.3011 44.2823 83.4702 43.6682 83.5725 43.0392C83.6652 42.4075 83.8186 41.8124 83.8819 41.1983C84.0936 39.9941 84.1789 38.7979 84.2443 37.6071C84.3088 36.4136 84.2755 35.2156 84.1934 33.9954C84.1141 32.7698 83.975 31.5382 83.791 30.208Z" fill="#E81C2E"/>
<path d="M32.485 3.07069C32.6856 1.77606 31.7986 0.563954 30.504 0.36338C29.2094 0.162805 27.9973 1.04971 27.7967 2.34434C27.5961 3.63897 28.483 4.85107 29.7777 5.05165C31.0723 5.25222 32.2844 4.36532 32.485 3.07069Z" fill="#E81C2E"/>
<path d="M28.5359 2.91744C28.1932 2.46798 28.3439 1.8161 28.7306 1.43471C29.1108 1.04709 29.7639 0.895483 30.2134 1.24001C29.9952 1.41688 29.8367 1.5441 29.6979 1.67252C29.5591 1.79707 29.4417 1.91211 29.324 2.02774C29.2074 2.14457 29.0921 2.26228 28.9675 2.4014C28.8382 2.54052 28.7116 2.69955 28.5359 2.91744Z" fill="white"/>
<path d="M16.5928 16.4338C16.9083 15.1622 16.1332 13.8757 14.8616 13.5602C13.59 13.2447 12.3035 14.0198 11.988 15.2914C11.6725 16.5629 12.4476 17.8495 13.7192 18.165C14.9908 18.4804 16.2773 17.7054 16.5928 16.4338Z" fill="#E81C2E"/>
<path d="M12.6815 16.0717C12.3388 15.6223 12.4895 14.9704 12.8763 14.589C13.2564 14.2014 13.9095 14.0498 14.359 14.3943C14.1408 14.5712 13.9824 14.6984 13.8435 14.8268C13.7047 14.9514 13.5873 15.0664 13.4696 15.182C13.3531 15.2989 13.2377 15.4166 13.1132 15.5557C12.9839 15.6945 12.8575 15.8535 12.6815 16.0717Z" fill="white"/>
<path d="M57.7592 5.28967C59.0692 5.28967 60.1313 4.22763 60.1313 2.91754C60.1313 1.60745 59.0692 0.54541 57.7592 0.54541C56.4491 0.54541 55.387 1.60745 55.387 2.91754C55.387 4.22763 56.4491 5.28967 57.7592 5.28967Z" fill="#E81C2E"/>
<path d="M56.1515 3.1274C55.8088 2.67795 55.9595 2.02606 56.3462 1.64467C56.7264 1.25705 57.3792 1.10544 57.829 1.44997C57.6108 1.62684 57.4523 1.75406 57.3135 1.88248C57.1747 2.00703 57.0573 2.12207 56.9396 2.2377C56.823 2.35453 56.7077 2.47224 56.5831 2.61136C56.4541 2.75048 56.3275 2.90951 56.1515 3.1274Z" fill="white"/>
<path d="M84.795 15.511C85.1076 14.2388 84.3297 12.9541 83.0574 12.6415C81.7852 12.3289 80.5005 13.1068 80.1879 14.3791C79.8753 15.6513 80.6532 16.936 81.9255 17.2486C83.1977 17.5612 84.4824 16.7833 84.795 15.511Z" fill="#E81C2E"/>
<path d="M80.8811 15.1508C80.5383 14.7014 80.689 14.0495 81.0758 13.6681C81.456 13.2805 82.1091 13.1289 82.5585 13.4734C82.3403 13.6503 82.1819 13.7775 82.0431 13.9059C81.9042 14.0305 81.7868 14.1455 81.6691 14.2611C81.5526 14.378 81.4372 14.4957 81.3127 14.6348C81.1837 14.7736 81.0571 14.9326 80.8811 15.1508Z" fill="white"/>
<path d="M45.9041 15.8626C46.7594 15.8626 47.4528 15.1692 47.4528 14.3139C47.4528 13.4585 46.7594 12.7651 45.9041 12.7651C45.0487 12.7651 44.3553 13.4585 44.3553 14.3139C44.3553 15.1692 45.0487 15.8626 45.9041 15.8626Z" fill="#E81C2E"/>
<path d="M44.8548 14.4498C44.631 14.1564 44.7294 13.7308 44.9818 13.482C45.23 13.229 45.6562 13.13 45.9496 13.355C45.8072 13.4707 45.7038 13.5536 45.6131 13.6374C45.5225 13.7186 45.4458 13.7938 45.3691 13.8693C45.293 13.9457 45.2178 14.0224 45.1363 14.113C45.0522 14.2037 44.9696 14.3074 44.8548 14.4498Z" fill="white"/>
<path d="M39.0887 8.38256C39.0887 8.94081 38.6359 9.39354 38.0777 9.39354C37.5194 9.39354 37.0667 8.94081 37.0667 8.38256C37.0667 7.82431 37.5194 7.37158 38.0777 7.37158C38.6362 7.37158 39.0887 7.82431 39.0887 8.38256Z" fill="#E81C2E"/>
<path d="M37.3927 8.47165C37.2468 8.27992 37.311 8.00228 37.4757 7.83967C37.6377 7.6744 37.9159 7.6099 38.1076 7.75674C38.0146 7.83225 37.9471 7.88635 37.888 7.94104C37.8288 7.99395 37.7789 8.0433 37.7286 8.09235C37.679 8.14229 37.6299 8.19222 37.5767 8.25168C37.5217 8.31083 37.4676 8.37861 37.3927 8.47165Z" fill="white"/>
<path d="M66.6932 14.8508C66.6932 15.4091 66.2405 15.8618 65.6822 15.8618C65.124 15.8618 64.6713 15.4091 64.6713 14.8508C64.6713 14.2926 65.124 13.8398 65.6822 13.8398C66.2408 13.8398 66.6932 14.2926 66.6932 14.8508Z" fill="#E81C2E"/>
<path d="M64.9973 14.9409C64.8514 14.7492 64.9156 14.4715 65.0803 14.3089C65.2423 14.1436 65.5205 14.0791 65.7122 14.226C65.6192 14.3015 65.5517 14.3556 65.4926 14.4103C65.4334 14.4635 65.3835 14.5125 65.3332 14.5619C65.2836 14.6115 65.2345 14.6618 65.1813 14.7209C65.1263 14.7801 65.0722 14.8478 64.9973 14.9409Z" fill="white"/>
</svg>
