<svg width="166" height="166" viewBox="0 0 166 166" fill="none" xmlns="http://www.w3.org/2000/svg">
<path d="M36.8113 141.589C16.5123 141.589 0 125.077 0 104.778C0 85.1953 15.3675 69.134 34.6761 68.0244C35.0104 64.4149 34.7596 54.5895 25.3446 40.9218C24.6328 39.8908 24.762 38.5003 25.646 37.6163C29.4987 33.7636 31.8798 31.3371 33.5463 29.64C35.7274 27.4211 36.7228 26.4079 38.1792 25.0856C38.6731 24.6375 39.2961 24.4121 39.922 24.4121C40.5297 24.4121 41.1351 24.6247 41.624 25.0478C58.03 39.3235 76.2547 68.8199 73.6179 104.965C72.0728 126.186 56.5938 141.589 36.8113 141.589ZM39.9471 30.5494C39.2406 31.2458 38.435 32.0665 37.247 33.2749C35.8033 34.7463 33.8225 36.7627 30.8184 39.7769C42.2447 57.3835 40.0864 69.9241 39.1418 71.7226C38.6933 72.5762 37.7738 73.1512 36.8113 73.1512C19.3745 73.1512 5.1875 87.3382 5.1875 104.778C5.1875 122.215 19.3745 136.402 36.8113 136.402C53.7975 136.402 67.1006 123.023 68.4454 104.59C71.409 63.9361 47.2472 37.5403 39.9471 30.5494Z" fill="#EEEEEE" fill-opacity="0.4"/>
<path d="M165.732 104.965V104.968C164.182 126.186 148.701 141.589 128.923 141.589C108.624 141.589 92.1094 125.077 92.1094 104.778C92.1094 85.1953 107.479 69.134 126.791 68.0244C127.125 64.4175 126.872 54.5973 117.454 40.9218C116.742 39.8908 116.872 38.5003 117.756 37.6163C121.593 33.7789 123.969 31.3573 125.636 29.6628C127.827 27.4288 128.827 26.4105 130.291 25.0833C130.785 24.6375 131.411 24.4121 132.034 24.4121C132.642 24.4121 133.247 24.6247 133.736 25.0504C150.142 39.3261 168.367 68.8222 165.732 104.965ZM132.059 30.5494C131.347 31.251 130.534 32.0766 129.336 33.2975C127.892 34.7668 125.919 36.7778 122.928 39.7769C134.354 57.3861 132.199 69.9241 131.256 71.7226C130.808 72.5736 129.886 73.1512 128.923 73.1512C111.484 73.1512 97.2969 87.3382 97.2969 104.778C97.2969 122.215 111.484 136.402 128.923 136.402C145.907 136.402 159.213 123.023 160.56 104.588V104.59C163.521 63.9413 139.359 37.5403 132.059 30.5494Z" fill="#EEEEEE" fill-opacity="0.4"/>
</svg>
